<?xml version="1.0" encoding="UTF-8"?>
<!-- Created with Inkscape (http://www.inkscape.org/) -->
<svg width="139.25mm" height="124.41mm" version="1.1" viewBox="0 0 139.25 124.41" xml:space="preserve" xmlns="http://www.w3.org/2000/svg"><g transform="translate(254.47 -180.28)"><g><circle cx="-201" cy="249.54" r="50.828" fill="#1f6faf" stop-color="#000000" stroke="#040714" stroke-linecap="round" stroke-linejoin="round" stroke-width="5.2917"/><rect x="-156.68" y="190.82" width="37.597" height="82.115" rx="1.0422" ry=".93402" fill="#dde3ec" stop-color="#000000"/><path d="m-155.97 203.4v-9.1239l19.978 0.23597 0.31462 8.0228s15.18 0.31462 15.652 0.31462-0.31462-7.7082-0.31462-7.7082l-5.7418-8.416-14.944-3.3822-13.765 1.1012-10.461 2.281-7.7082 2.6743s2.4383 3.4608 3.1462 3.6181c0.70789 0.15731 6.607 3.5395 6.607 3.5395l3.7754 3.9327z" fill="#9aa3b1"/><path d="m-120.39 201.39-14.737-0.18769-0.31471-7.2362-21.105-0.30614-0.31462 11.514 2.5061-0.0393v-10.026h17.641v10.026h2.8169v-0.0822h11.736v0.0822l2.0659-0.0197z" fill="#9aa3b1" stop-color="#000000" stroke-linecap="round" stroke-linejoin="round" stroke-width="4.5096"/></g><path d="m-185.77 194.72c-2.8017 0.86416-5.8954 2.0206-9.3121 3.5223l1.4108 0.10904c2.7308-1.3057 5.3634-2.5146 7.9013-3.6313z" fill="none" stroke="#040714" stroke-linecap="round" stroke-linejoin="round" stroke-width="5.2917"/><path d="m-117.88 204.31s1.7011-21.495-24.472-21.386c-9.9245 0.0413-23.857 3.1892-43.41 11.793 26.331-8.1216 26.851 9.5932 26.851 9.5932" fill="none" stroke="#040714" stroke-linecap="round" stroke-linejoin="round" stroke-width="5.2917"/><g fill="#040714"><g transform="matrix(1.298 0 0 1.298 -301.49 108.48)" stroke-width="4.0767"><circle transform="rotate(90)" cx="108.68" cy="-96.663" r="9.1212" fill="#040714" stop-color="#000000"/></g><circle cx="-201" cy="224.56" r="11.839" stop-color="#000000"/><circle cx="-201" cy="274.52" r="11.839" stop-color="#000000"/><circle transform="rotate(90)" cx="249.54" cy="225.97" r="11.839" stop-color="#000000"/><circle cx="-201" cy="249.54" r="5.9215" stop-color="#000000"/></g><rect x="-151.06" y="276.08" width="25.584" height="25.584" rx="1.0422" ry=".93402" fill="#dde3ec" stop-color="#000000"/><rect x="-152.2" y="274.47" width="27.596" height="27.663" rx="1.0422" ry=".93402" fill="none" stop-color="#000000" stroke="#040714" stroke-linecap="round" stroke-linejoin="round" stroke-width="5.1291"/><g><g transform="matrix(.93397 0 0 1.0059 -79.668 101.5)" fill="#040714"><rect x="-71.497" y="182.83" width="5.7418" height="5.7418" stop-color="#000000"/><rect x="-60.014" y="182.83" width="5.7418" height="5.7418" stop-color="#000000"/></g><path d="m-118.48 205.13h-3.6783v7.8006h-11.736v-7.8006h-2.8169v3.205h-17.641v-3.205h-2.6634v71.411h38.536zm-35.873 5.564h17.641v13.231h-17.641zm20.458 10.119h11.736v7.8822h-11.736zm-20.458 5.471h17.641v13.231h-17.641zm20.458 9.9436h11.736v7.8822h-11.736zm-20.458 5.6462h17.641v13.231h-17.641zm20.458 10.469h11.736v7.8822h-11.736zm-20.458 5.1206h17.641v13.231h-17.641z" fill="#9aa3b1" stop-color="#000000" stroke-linecap="round" stroke-linejoin="round" stroke-width="4.5096"/><path d="m-120.53 204.31v67.595h-35.74v-67.595h-5.291v69.307c0 2.1019 1.8375 3.5801 3.6875 3.5801h38.947c1.85 0 3.6875-1.4782 3.6875-3.5801v-69.307" color="#000000" fill="#040714" stroke-linecap="round" stroke-linejoin="round"/></g></g></svg>
