<?xml version="1.0" encoding="UTF-8" standalone="no"?>
<!-- Created with Inkscape (http://www.inkscape.org/) -->

<svg
   width="43.094997mm"
   height="43.094997mm"
   viewBox="0 0 43.094997 43.094997"
   version="1.1"
   id="svg5"
   xml:space="preserve"
   inkscape:version="1.2.1 (9c6d41e410, 2022-07-14)"
   sodipodi:docname="Tech Care Connect Logo.svg"
   xmlns:inkscape="http://www.inkscape.org/namespaces/inkscape"
   xmlns:sodipodi="http://sodipodi.sourceforge.net/DTD/sodipodi-0.dtd"
   xmlns:xlink="http://www.w3.org/1999/xlink"
   xmlns="http://www.w3.org/2000/svg"
   xmlns:svg="http://www.w3.org/2000/svg"><sodipodi:namedview
     id="namedview7"
     pagecolor="#ffffff"
     bordercolor="#666666"
     borderopacity="1.0"
     inkscape:showpageshadow="2"
     inkscape:pageopacity="0.0"
     inkscape:pagecheckerboard="0"
     inkscape:deskcolor="#d1d1d1"
     inkscape:document-units="mm"
     showgrid="false"
     inkscape:zoom="1.4142136"
     inkscape:cx="-20.85965"
     inkscape:cy="77.781747"
     inkscape:window-width="1920"
     inkscape:window-height="1027"
     inkscape:window-x="760"
     inkscape:window-y="213"
     inkscape:window-maximized="1"
     inkscape:current-layer="layer1" /><defs
     id="defs2"><linearGradient
       inkscape:collect="always"
       id="linearGradient9066"><stop
         style="stop-color:#44abbe;stop-opacity:1;"
         offset="0"
         id="stop9062" /><stop
         style="stop-color:#7fe7f4;stop-opacity:1;"
         offset="0.47779751"
         id="stop9070" /><stop
         style="stop-color:#44abbe;stop-opacity:0;"
         offset="1"
         id="stop9064" /></linearGradient><linearGradient
       inkscape:collect="always"
       id="linearGradient42129"><stop
         style="stop-color:#44abbe;stop-opacity:1;"
         offset="0"
         id="stop42125" /><stop
         style="stop-color:#fefcfb;stop-opacity:0;"
         offset="1"
         id="stop42127" /></linearGradient><linearGradient
       inkscape:collect="always"
       xlink:href="#linearGradient42129"
       id="linearGradient42131"
       x1="194.96626"
       y1="174.82089"
       x2="189.79608"
       y2="169.65071"
       gradientUnits="userSpaceOnUse"
       gradientTransform="translate(-56.538558,-5.589274)" /><linearGradient
       inkscape:collect="always"
       xlink:href="#linearGradient9066"
       id="linearGradient9068"
       x1="145.92204"
       y1="168.59666"
       x2="124.71977"
       y2="136.44972"
       gradientUnits="userSpaceOnUse" /></defs><g
     inkscape:label="Layer 1"
     inkscape:groupmode="layer"
     id="layer1"
     transform="translate(-115.16042,-127.95166)"><g
       id="g13035"><circle
         style="fill:url(#linearGradient9068);fill-opacity:1;stroke:#202d38;stroke-width:1.06325;stroke-linejoin:round;stroke-dasharray:none;stroke-opacity:1;paint-order:normal;stop-color:#000000"
         id="circle5673"
         cx="136.70792"
         cy="149.49916"
         r="21.015873" /><circle
         style="fill:#feeeb8;fill-opacity:1;stroke:#ff0000;stroke-width:1.06358;stroke-linejoin:round;stroke-dasharray:none;stroke-opacity:1;paint-order:normal;stop-color:#000000"
         id="circle5766"
         cx="136.70792"
         cy="149.49916"
         r="18.802614" /><path
         id="path43513"
         style="fill:#fbfefb;fill-opacity:1;stroke:none;stroke-width:1.005;stroke-linecap:round;stroke-linejoin:round;stroke-dasharray:none;stroke-opacity:1"
         d="m 138.3066,167.37732 c 0,0 -2.99173,-7.11092 -4.6974,-9.2599 -1.70565,-2.14899 -3.29202,-2.48606 -6.18256,-3.92483 -1.84616,-0.91894 -3.58537,-3.60548 -4.82607,-2.75539 -1.24069,0.85009 -1.0301,1.56304 -0.46767,2.84272 0.35125,0.79919 1.41333,1.76447 2.73575,2.66909 0.79506,0.54389 2.57607,1.57872 2.57607,1.57872 0,0 -4.50632,-0.91925 -5.74383,-4.65347 -0.31507,-1.29001 -0.34801,-0.28091 -0.93896,-5.28598 -0.2018,-1.11299 -0.76002,-1.50991 -1.33429,-1.48931 -0.73835,0.0265 -1.50344,0.7436 -1.57406,1.51773 -0.12555,1.3762 -0.31407,2.30347 0.15554,4.71393 0.21656,1.11155 0.75866,3.07795 1.51981,4.44727 0.56747,1.02089 1.29663,1.9951 2.21795,2.71301 1.97712,1.54062 5.21099,2.03959 6.80785,3.19206 1.59685,1.15247 3.144,4.43952 3.144,4.43952 m 7.58145,-0.0992 c 0,0 2.5163,-0.0534 2.59509,-0.49857 0.23587,-1.33279 0.79057,-2.97783 1.98755,-3.84173 1.59685,-1.15249 4.83074,-1.65144 6.80786,-3.19206 0.92131,-0.71791 1.65048,-1.69212 2.21795,-2.71301 0.76115,-1.36932 1.30324,-3.33572 1.5198,-4.44727 0.46961,-2.41046 0.2811,-3.33773 0.15555,-4.71393 -0.0706,-0.77413 -0.83571,-1.49126 -1.57407,-1.51773 -0.57427,-0.0206 -1.13248,0.37632 -1.33428,1.48931 -0.59095,5.00507 -0.62389,3.99597 -0.93896,5.28598 -1.23751,3.73422 -5.74384,4.65347 -5.74384,4.65347 0,0 1.78101,-1.03483 2.57607,-1.57872 1.32242,-0.90462 2.3845,-1.8699 2.73575,-2.66909 0.56243,-1.27968 0.77303,-1.99263 -0.46767,-2.84272 -1.2407,-0.85009 -2.9799,1.83645 -4.82606,2.75539 -2.89055,1.43877 -4.47691,1.77584 -6.18257,3.92483 -1.70566,2.14898 -2.38228,5.68802 -2.38228,5.68802"
         sodipodi:nodetypes="cssssscccssssssccssssssscccsssssc" /><path
         style="fill:#7fe7f4;fill-opacity:1;stroke:none;stroke-width:0.264583px;stroke-linecap:butt;stroke-linejoin:miter;stroke-opacity:1"
         d="m 137.29692,164.12754 c 0,0 0.64022,-4.24767 5.65895,-7.12419 2.74536,-1.57352 4.21347,-2.2413 5.84525,-3.8416 0.99868,-0.97941 2.23761,-0.74545 2.23761,-0.74545 l -0.42094,2.12814 -1.59026,1.77734 -3.5313,1.96443 -0.46772,0.53788 c 0,0 2.71878,1.0613 5.79231,-2.34506 1.74969,-1.93917 2.44287,-5.08206 2.5317,-7.10061 0.0587,-1.33318 1.57378,-1.49549 1.57378,-1.49549 l 0.30263,3.54405 -1.52135,5.19245 -1.81901,3.37344 -1.68672,1.48828 -3.63802,0.95911 -2.87734,1.45521 -1.78594,2.94349 -0.79375,1.28984 -2.21589,-2.48046 z"
         id="path8943"
         sodipodi:nodetypes="csscccccssccccccccccc" /><path
         style="fill:#7fe7f4;fill-opacity:1;stroke:none;stroke-width:0.264583px;stroke-linecap:butt;stroke-linejoin:miter;stroke-opacity:1"
         d="m 135.99249,164.12754 c 0,0 -0.64849,-4.24767 -5.66722,-7.12419 -2.74536,-1.57352 -4.21347,-2.2413 -5.84525,-3.8416 -0.99868,-0.97941 -2.23761,-0.74545 -2.23761,-0.74545 l 0.42094,2.12814 1.59026,1.77734 3.5313,1.96443 0.46772,0.53788 c 0,0 -2.71878,1.0613 -5.79231,-2.34506 -1.74969,-1.93917 -2.44287,-5.08206 -2.5317,-7.10061 -0.0587,-1.33318 -1.57378,-1.49549 -1.57378,-1.49549 l -0.30263,3.54405 1.52135,5.19245 1.81901,3.37344 1.68672,1.48828 3.63802,0.95911 2.87734,1.45521 1.78594,2.94349 0.79375,1.28984 2.21589,-2.48046 z"
         id="path8906"
         sodipodi:nodetypes="csscccccssccccccccccc" /><path
         style="fill:#44abbe;fill-opacity:1;stroke:none;stroke-width:0.265;stroke-linecap:round;stroke-linejoin:round;stroke-dasharray:none;stroke-opacity:1"
         d="m 133.81278,165.69794 c 0,0 -0.96803,-4.47157 -8.89661,-5.88697 -3.52901,-0.62999 -6.32547,-9.00105 -6.32547,-9.00105 l -0.38834,1.12969 2.05052,6.68073 2.21589,2.21589 3.40651,1.5875 3.77031,1.62057 2.14974,3.60495 1.7373,0.61355 0.84239,-1.87032 z"
         id="path8908"
         sodipodi:nodetypes="cscccccccccc" /><path
         style="fill:#44abbe;fill-opacity:1;stroke:none;stroke-width:0.265;stroke-linecap:round;stroke-linejoin:round;stroke-dasharray:none;stroke-opacity:1"
         d="m 139.46836,165.69794 c 0,0 0.96803,-4.47157 8.89661,-5.88697 3.52901,-0.62999 6.32547,-9.00105 6.32547,-9.00105 l 0.38834,1.12969 -2.05052,6.68073 -2.21589,2.21589 -3.40651,1.5875 -3.77031,1.62057 -2.14974,3.60495 -0.4961,0.85989 -2.08359,-2.11666 z"
         id="path8945"
         sodipodi:nodetypes="cscccccccccc" /><circle
         style="fill:none;fill-opacity:1;stroke:#202d38;stroke-width:1.06358;stroke-linejoin:round;stroke-dasharray:none;stroke-opacity:1;paint-order:normal;stop-color:#000000"
         id="circle9128"
         cx="136.70792"
         cy="149.49916"
         r="18.802614" /><g
         id="g44520"><circle
           style="fill:#ffffff;fill-opacity:1;stroke:none;stroke-width:1.053;stroke-linecap:round;stroke-linejoin:round;stroke-dasharray:none;stroke-opacity:1;paint-order:normal;stop-color:#000000"
           id="circle44500"
           cx="136.70792"
           cy="167.46794"
           r="2.9022753" /><g
           id="g44514"><circle
             style="fill:url(#linearGradient42131);fill-opacity:1;stroke:#202d38;stroke-width:1.053;stroke-linecap:round;stroke-linejoin:round;stroke-dasharray:none;stroke-opacity:1;paint-order:normal;stop-color:#000000"
             id="path31501"
             cx="136.70792"
             cy="167.46794"
             r="2.9022753" /><path
             style="fill:#202d38;fill-opacity:1;stroke:none;stroke-width:0.849869;stroke-linecap:round;stroke-linejoin:round;stroke-dasharray:none;stroke-opacity:1;paint-order:stroke fill markers;stop-color:#000000"
             id="path32697"
             sodipodi:type="arc"
             sodipodi:cx="136.70792"
             sodipodi:cy="167.46794"
             sodipodi:rx="0.81028646"
             sodipodi:ry="0.81028646"
             sodipodi:start="6.2406624"
             sodipodi:end="6.2404485"
             sodipodi:arc-type="slice"
             d="m 137.51747,167.4335 a 0.81028646,0.81028646 0 0 1 -0.77507,0.84399 0.81028646,0.81028646 0 0 1 -0.84403,-0.77502 0.81028646,0.81028646 0 0 1 0.77497,-0.84408 0.81028646,0.81028646 0 0 1 0.84412,0.77493 l -0.80954,0.0346 z" /></g></g><rect
         style="fill:#fbfefa;fill-opacity:1;stroke:none;stroke-width:2;stroke-linecap:square;stroke-linejoin:miter;stroke-dasharray:none;stroke-opacity:1;paint-order:normal;stop-color:#000000"
         id="rect44482"
         width="19.363678"
         height="2.5490875"
         x="127.0332"
         y="148.5484"
         rx="1.0421815"
         ry="0.93402398" /><rect
         style="fill:#7fe7f4;fill-opacity:1;stroke:none;stroke-width:1.005;stroke-linejoin:round;stroke-dasharray:none;stroke-opacity:1;paint-order:stroke fill markers;stop-color:#000000"
         id="rect21907"
         width="16.891098"
         height="1.9699333"
         x="128.26234"
         y="149.46185"
         rx="1.0421815"
         ry="0.93402404" /><path
         id="path21640"
         style="fill:#27a7ae;fill-opacity:1;stroke-width:1.0247;stroke-linejoin:round;stroke-dasharray:none;paint-order:stroke fill markers;stop-color:#000000"
         d="m 126.97877,149.60498 0.10591,2.41213 9.62323,0.17703 9.62324,-0.17703 0.10591,-2.41213 c 0,0 -0.18972,1.04958 -0.9911,1.13757 -0.57215,0.0628 -4.59767,0.0633 -8.73805,0.0469 -4.14037,0.0164 -8.1659,0.0159 -8.73805,-0.0469 -0.80138,-0.088 -0.99109,-1.13757 -0.99109,-1.13757 z" /><path
         id="rect13516"
         style="fill:#a1eacc;stroke-width:1.005;stroke-linejoin:round;stroke-dasharray:none;stop-color:#000000"
         d="m 127.86522,137.22721 0.9164,-1.0815 H 143.726 l 1.54155,0.76688 0.25563,9.22226 h -17.69729 z"
         sodipodi:nodetypes="ccccccc" /><path
         id="rect10948"
         style="fill:#27a7ae;fill-opacity:1;stroke-width:1.005;stroke-linejoin:round;stroke-dasharray:none;stop-color:#000000"
         d="m 127.90455,145.72189 h 15.25899 c 0,0 0.51065,0.14087 2.12369,-1.14049 0.73059,-0.58036 -0.25563,2.94955 -0.25563,2.94955 l -17.08772,-0.0983 z"
         sodipodi:nodetypes="ccsccc" /><path
         id="rect19333"
         style="fill:#ffffff;stroke-width:1.005;stroke-linejoin:round;stroke-dasharray:none;paint-order:stroke fill markers;stop-color:#000000"
         d="m 128.16574,136.19634 h 16.22252 c 0.32681,0 0.67974,0.30924 0.58991,0.66857 l -0.059,0.23597 c -0.0898,0.35932 0.16949,0.19426 -0.15731,0.19663 -5.23268,0.003 -12.79809,0.0148 -14.71285,0.0729 -2.37069,0.072 -2.22244,9.45523 -2.23603,7.08348 l -0.23716,-7.58902 c -0.0116,-0.37021 0.2631,-0.66857 0.58991,-0.66857 z"
         sodipodi:nodetypes="sssscscsss" /><path
         id="rect10079"
         style="fill:none;fill-opacity:1;stroke:#202d38;stroke-width:1.005;stroke-linejoin:round;stroke-dasharray:none;stroke-opacity:1;paint-order:normal;stop-color:#000000"
         d="m 130.39228,135.63315 c -1.69466,0 -3.05873,1.36407 -3.05873,3.05873 v 6.20789 c 0,1.69466 1.36407,3.05925 3.05873,3.05925 h 12.35635 c 1.69466,0 3.05925,-1.36459 3.05925,-3.05925 v -6.20789 c 0,-1.69466 -1.36459,-3.05873 -3.05925,-3.05873 z m -1.65158,12.69328 c -1.15545,0 -2.08566,0.81824 -2.08566,1.83503 0,1.0168 0.93021,1.83555 2.08566,1.83555 h 15.93443 c 1.15545,0 2.08566,-0.81875 2.08566,-1.83555 0,-1.01679 -0.93021,-1.83503 -2.08566,-1.83503 z" /><path
         id="rect18002"
         style="fill:#ffffff;fill-opacity:1;stroke:#1c3138;stroke-width:2;stroke-linecap:square;stroke-linejoin:miter;stroke-dasharray:none;stroke-opacity:1;paint-order:stroke fill markers;stop-color:#000000"
         d="m 136.58245,139.17111 c -0.3155,0 -0.56962,0.22389 -0.56962,0.50228 v 1.06397 h -1.06354 c -0.2784,0 -0.50273,0.25369 -0.50273,0.5692 v 0.25135 c 0,0.31552 0.22433,0.56964 0.50273,0.56964 h 1.06354 v 1.06353 c 0,0.2784 0.25412,0.50272 0.56962,0.50272 h 0.25137 c 0.3155,0 0.56962,-0.22432 0.56962,-0.50272 v -1.06353 h 1.06354 c 0.27839,0 0.50228,-0.25412 0.50228,-0.56964 v -0.25135 c 0,-0.31551 -0.22389,-0.5692 -0.50228,-0.5692 h -1.06354 v -1.06397 c 0,-0.27839 -0.25412,-0.50228 -0.56962,-0.50228 z" /><rect
         style="fill:#202d38;fill-opacity:1;stroke:none;stroke-width:1.005;stroke-linejoin:round;stroke-dasharray:none;stroke-opacity:1;paint-order:stroke fill markers;stop-color:#000000"
         id="rect21784"
         width="3.814739"
         height="1.0520022"
         x="134.80052"
         y="149.57123"
         ry="0.33428231"
         rx="0.33428231" /><g
         id="g4461"
         transform="matrix(0.08049775,-0.30042168,0.30042168,0.08049775,59.743368,174.90606)"
         style="fill:none;stroke:#202d38;stroke-opacity:1"><path
           style="fill:none;stroke:#202d38;stroke-width:2.5;stroke-linecap:round;stroke-dasharray:none;stroke-opacity:1"
           d="m 142.80339,169.06114 c 6.14183,-5.63952 15.29218,-5.63698 21.43125,0 m -17.99166,3.96875 c 4.46042,-3.85683 10.09594,-3.85316 14.55208,0 m -10.84792,3.70416 c 2.51918,-1.6597 4.62458,-1.6597 7.14375,0"
           id="path3096"
           sodipodi:nodetypes="cccccc"
           transform="translate(-1.6331036e-6)" /></g><g
         id="g44492"
         transform="matrix(-0.08049775,-0.30042168,-0.30042168,0.08049775,213.67246,174.90606)"
         style="fill:none;stroke:#202d38;stroke-opacity:1"><path
           style="fill:none;stroke:#202d38;stroke-width:2.5;stroke-linecap:round;stroke-dasharray:none;stroke-opacity:1"
           d="m 142.80339,169.06114 c 6.14183,-5.63952 15.29218,-5.63698 21.43125,0 m -17.99166,3.96875 c 4.46042,-3.85683 10.09594,-3.85316 14.55208,0 m -10.84792,3.70416 c 2.51918,-1.6597 4.62458,-1.6597 7.14375,0"
           id="path44490"
           sodipodi:nodetypes="cccccc"
           transform="translate(-1.6331036e-6)" /></g><path
         style="fill:#44abbe;fill-opacity:1;stroke:none;stroke-width:0.065;stroke-linecap:butt;stroke-linejoin:miter;stroke-dasharray:none;stroke-opacity:1"
         d="m 122.64885,152.32892 c 0,0 1.05704,1.92433 2.13743,2.73942 1.08039,0.81508 2.51762,3.20117 2.51762,3.20117 l -1.88619,-0.617 -2.4722,-2.24069 -1.28158,-3.00137 z"
         id="path8910"
         sodipodi:nodetypes="czc" /><path
         id="path8928"
         style="fill:none;stroke:#202d38;stroke-width:1.005;stroke-linecap:square;stroke-linejoin:round;stroke-dasharray:none;stroke-opacity:1"
         d="m 136.4229,163.70885 c 0,0 -0.67663,-3.53904 -2.38229,-5.68802 -1.70565,-2.14899 -3.29202,-2.48606 -6.18256,-3.92483 -1.84616,-0.91894 -3.58537,-3.60548 -4.82607,-2.75539 -1.24069,0.85009 -1.0301,1.56304 -0.46767,2.84272 0.35125,0.79919 1.41333,1.76447 2.73575,2.66909 0.79506,0.54389 2.57607,1.57872 2.57607,1.57872 0,0 -4.50632,-0.91925 -5.74383,-4.65347 -0.31507,-1.29001 -0.34801,-0.28092 -0.93896,-5.28598 -0.2018,-1.11299 -0.76002,-1.50991 -1.33429,-1.48931 -0.73835,0.0265 -1.50344,0.7436 -1.57406,1.51773 -0.12555,1.3762 -0.31407,2.30347 0.15554,4.71393 0.21656,1.11155 0.75866,3.07795 1.51981,4.44727 0.56747,1.02089 1.29663,1.9951 2.21795,2.71301 1.97712,1.54062 5.21099,2.03959 6.80785,3.19206 1.59685,1.15247 2.11874,3.31504 2.11874,3.31504" /><path
         style="fill:#44abbe;fill-opacity:1;stroke:none;stroke-width:0.065;stroke-linecap:butt;stroke-linejoin:miter;stroke-dasharray:none;stroke-opacity:1"
         d="m 150.63229,152.32892 c 0,0 -1.05704,1.92433 -2.13743,2.73942 -1.08039,0.81508 -2.51762,3.20117 -2.51762,3.20117 l 1.88619,-0.617 2.4722,-2.24069 1.28158,-3.00137 z"
         id="path8947"
         sodipodi:nodetypes="czc" /><path
         id="path8951"
         style="fill:none;stroke:#202d38;stroke-width:1.005;stroke-linecap:square;stroke-linejoin:round;stroke-dasharray:none;stroke-opacity:1"
         d="m 136.85824,163.70885 c 0,0 0.67663,-3.53904 2.38229,-5.68802 1.70565,-2.14899 3.29202,-2.48606 6.18256,-3.92483 1.84616,-0.91894 3.58537,-3.60548 4.82607,-2.75539 1.24069,0.85009 1.0301,1.56304 0.46767,2.84272 -0.35125,0.79919 -1.41333,1.76447 -2.73575,2.66909 -0.79506,0.54389 -2.57607,1.57872 -2.57607,1.57872 0,0 4.50632,-0.91925 5.74383,-4.65347 0.31507,-1.29001 0.34801,-0.28092 0.93896,-5.28598 0.2018,-1.11299 0.76002,-1.50991 1.33429,-1.48931 0.73835,0.0265 1.50344,0.7436 1.57406,1.51773 0.12555,1.3762 0.31407,2.30347 -0.15554,4.71393 -0.21656,1.11155 -0.75866,3.07795 -1.51981,4.44727 -0.56747,1.02089 -1.29663,1.9951 -2.21795,2.71301 -1.97712,1.54062 -5.21099,2.03959 -6.80785,3.19206 -1.59685,1.15247 -2.11874,3.31504 -2.11874,3.31504" /></g></g></svg>
